<?xml version="1.0" encoding="utf-8"?>
<svg version="1.1" id="Layer_1" xmlns="http://www.w3.org/2000/svg" x="0px" y="0px"
	 width="300px" height="300px" viewBox="0 0 300 300" style="enable-background:new 0 0 300 300;" xml:space="preserve">
<g>
	<path d="M124.2,204.9c0.2-1.3,0.4-2.5,0.7-3.7c-1.5-0.4-2.5-1.1-2.4-2.7c0-1.1,0.7-1.8,1.6-2.3c0.8-0.4,1.5-0.1,2,0.6
		c1.1-1.5,1-1.5-0.1-2.9c-1.3-1.5-2.5-3.1-3.8-4.6c-1.1-1.3-2.4-1.9-4.1-1.8c-0.2,0.6-0.4,1.3-0.7,1.8c-0.6,1.1-1.7,1.3-2.7,0.5
		c-1.1-0.9-1.5-2.2-1.5-3.6c0-0.9,0.8-1.3,1.8-1.1c1.4,0.3,2.8,0.3,4.3,0.5c0-0.1,0.1-0.3,0.1-0.4c-0.3-0.2-0.6-0.4-1-0.5
		c-2.4-0.9-4.8-1.8-7.3-2.8c-0.7-0.3-1.2-0.6-1.1-1.4c0.1-0.8,0.7-1,1.4-1.2c1.3-0.3,2.6-0.6,3.9-0.9c0-0.1,0.1-0.2,0.1-0.2
		c-0.9-2.9-1.9-5.7-2.8-8.6c-0.8-2.4-2.6-3.6-4.8-4.5c-0.3-0.1-0.6-0.2-1-0.3c-2.4-1-3.2-3.2-2.1-5.6c0.6-1.2,1.6-1.3,2.9-1.1
		c-0.2-0.3-0.3-0.5-0.4-0.6c-3-3-4.2-6.7-4.9-10.7c-0.4-2.4,0.8-3.9,3.1-4.5c1.2-0.3,1.3-0.4,1.6-1.7c-2.9-0.4-5.8-0.8-8.8-1
		c-1.5-0.1-2.4-0.8-2.6-2.1c-0.2-1.3,0.3-2.4,1.4-2.9c1-0.5,2.5-0.2,3.4,0.7c0.3,0.3,0.7,0.7,0.9,1.1c1.2,2.3,3.5,2.1,5.8,2.5
		c-0.8-2-1.5-3.8-2.1-5.6c-0.4-1-1-1.7-1.9-2.3c-1.1-0.7-2.1-1.6-2.9-2.7c-1-1.3-0.7-3,0.4-4c0.9-0.8,1.8-0.8,2.7,0
		c1.5,1.3,2.4,2.9,2.6,4.9c0.1,0.9,0.3,1.9,0.7,2.8c0.8,2.1,1.6,4.2,2.4,6.2c0.4,1.1,1.3,1.7,2.4,1.7c0.5-0.8,0.8-1.7,1.3-2.4
		c1.9-2.4,4.7-2.2,6.4,0.3c0.3,0.4,0.6,0.8,1,1.1c1.6,1.1,2.4,2.6,2.7,4.4c0.6,4,0.7,8,0,12c-0.4,2-1,4-1.7,5.9
		c-0.3,0.9-0.3,1.6,0.1,2.5c1.8,3.9,4.4,7.1,7.1,10.3c0.1,0.1,0.1,0.1,0.4,0.2c-0.4-1.1-0.8-2-1.2-2.9c-2.2-5.3-2.1-10.6-0.3-16
		c0.8-2.4,1.7-4.8,3.3-6.8c0.4-0.5,0.8-1.1,1.5-0.9c0.8,0.2,0.9,0.9,1,1.6c0.4,5.2,0.9,10.4,1.1,15.6c0.1,2.6-0.4,5.3-0.5,8
		c-0.1,1.8-0.3,3.6-0.3,5.4c0,0.3,0.2,0.8,0.4,1c2.7,2.5,5.4,5,8.1,7.6c-3.6-17.4-5.5-34.8-1-52.3c-2.1-2-4.3-3.7-6.1-5.8
		c-5.9-6.9-9.4-14.8-9.5-24c0-3.1,0.5-6,1.4-8.9c0.1-0.4,0.7-0.9,1.1-1c0.7-0.1,1,0.5,1.1,1.2c0.1,0.7,0.1,1.5,0.3,2.2
		c0.6,3.8,2.1,7.2,4.3,10.3c2.5,3.6,5.2,7.1,6.6,11.3c0.8,2.5,1.3,5.1,1.9,7.6c0.1,0.4,0.2,0.9,0.3,1.4
		c3.9-11.2,10.3-20.9,17.1-30.8c-1.2-1.5-2.4-3.1-3.6-4.7c-2.1-3-3.5-6.3-3.9-10c-0.5-4.5-0.2-9,1-13.5c0.2-0.8,0.5-1.5,0.9-2.2
		c1-1.6,3-1.8,4.4-0.5c0.3,0.3,0.6,0.6,0.9,0.9c0.8,0.7,1.7,0.5,2-0.6c0.5-1.8,1.3-3.4,2.6-4.7c1.9-1.9,5.2-2.8,7.6-1.6
		c3.1,1.4,6.3,1.7,9.6,2.1c2.1,0.2,3.8,1.3,5.5,2.5c1.2,0.9,1.7,2.1,1.4,3.5c-0.4,2.3-0.1,4.3,1.8,5.9c1.1,0.9,1.2,2.3,0.8,3.8
		c-0.3,1-0.3,2.1-0.3,3.1c0.1,1.8-0.1,3.4-1.3,4.9c-0.3,0.3-0.1,1.1,0,1.5c0.6,2.2,1.6,4.3,1.9,6.5c0.3,1.6,0,3.3-0.4,4.9
		c-1.1,3.8-6,5.9-9.7,4.6c-1.7-0.6-3.6-0.6-5.4-0.9c-1.3-0.2-2.6-0.2-3.9-0.5c-1.5-0.4-2.9-1.1-4.3-1.7c-0.5-0.2-1-0.6-1.4-0.9
		c-0.7-0.5-1.5-0.9-2.4-0.7c-0.2,0.1-0.6,0-0.8-0.1c-1.3-0.5-1.9,0.2-2.6,1.2c-5.8,8.6-11.5,17.3-15,27.2c-1.1,3.3-1.9,6.6-2.9,10
		c0,0.2,0,0.3,0,0.5c1.1-1.4,2.1-2.7,3.2-4.1c1.7-2.2,3.7-3.8,6.1-5c4.9-2.4,9.3-5.6,13.6-8.8c0.3-0.2,0.5-0.5,0.8-0.6
		c0.5-0.1,1.2-0.2,1.5,0c0.6,0.4,0.4,1.1,0,1.6c-0.9,1.1-1.7,2.2-2.7,3.2c-4.2,4.6-7.4,9.8-10.5,15.1c-2.2,3.8-5,7.3-7.5,10.9
		c-1.3,1.8-2.6,3.6-3.8,5.4c-2.2,3.5-2.4,7.4-1.9,11.5c1.2,10.3,3.3,20.5,6,30.5c0,0.2,0.1,0.3,0.1,0.3c0.4-2.8,0.7-5.7,1.4-8.6
		c2-8.3,6.2-15.4,12.4-21.3c0.8-0.8,0.8-1.3-0.2-1.9c-0.9-0.6-1.9-1-2.8-1.4c-0.3-0.1-0.6,0-1,0.1c-1.8,0.4-3.4-0.5-3.9-2.3
		c-0.2-0.8-0.2-1.7,0.6-2.1c0.6-0.3,1.5-0.4,2-0.2c1.2,0.5,2.2,1.3,3.3,2c0.1,0.1,0.3,0.2,0.3,0.3c0.2,1.2,1.3,1.3,2.2,1.8
		c-0.1-0.8-0.2-1.4-0.2-2c0-1.2-0.1-2.3,0-3.5c0.1-1.6-0.4-2.7-1.9-3.3c-1.6-0.7-3.1-1.3-4.7-1.8c-1.1-0.4-1.9-1.1-2.1-2.3
		c-0.2-0.9,0-1.8,0.8-2.3c0.8-0.5,1.8-0.6,2.5,0c0.8,0.6,1.5,1.4,2,2.2c0.7,1,1.1,2.1,2.6,2.5c-0.4-1-0.7-2-1.1-2.9
		c-1.7-5.3-2-10.6-0.7-16.1c0.1-0.5,0.6-1.2,1-1.2c0.4-0.1,1.1,0.4,1.4,0.8c1.5,2.1,3,4.2,4.4,6.3c0.2,0.3,0.4,0.5,0.7,0.9
		c0.4-1.7,0.8-3.2,1.1-4.8c0.3-1.5-0.2-2.7-1.3-3.7c-0.6-0.5-1.2-1.1-1.6-1.7c-0.8-1.2-0.4-2.9,0.6-3.5c1.1-0.6,2.5-0.1,3.3,1.3
		c0.6,1.1,0.8,2.2,0.5,3.4c-0.1,0.4,0.1,1,0.2,1.5c0.1,0,0.2,0,0.2,0c0.2-0.3,0.4-0.5,0.5-0.8c1.5-3.3,3.1-6.6,4.6-10
		c0.2-0.4,0.1-1-0.1-1.4c-0.7-1.3-0.4-2.9,0.8-3.5c1.4-0.7,2.8-0.1,3.5,1.3c0.7,1.5,0.1,2.9-1.3,3.5c-0.3,0.1-0.6,0.3-0.7,0.6
		c-0.7,1.6-1.3,3.1-1.9,4.9c1.4-0.5,2.7-0.6,3.7-1.8c0.9-1.1,2.1-1.7,3.5-1.5c1.3,0.2,1.9,1.3,1.3,2.5c-0.6,1.3-3,2.2-4.3,1.8
		c-0.2-0.1-0.5-0.1-0.7,0c-1.1,0.3-2.3,0.6-3.3,1.1c-0.7,0.3-1.5,0.8-1.8,1.4c-1.4,2.3-2.7,4.8-3.9,7.2c-0.5,0.9-0.6,2-0.8,3.1
		c1.4-1.3,3.1-1.7,4.8-2.1c0.7-0.2,1.4-0.8,2.1-1.1c0.7-0.4,1.3-0.9,2.1-1.2c0.9-0.4,1.9,0,2.3,0.9c0.5,0.8,0.4,2-0.5,2.5
		c-1.4,0.9-2.9,1.8-4.8,1c-0.7-0.3-1.8,0-2.6,0.4c-1.1,0.5-2,1.2-3.1,1.9c1.5,1.8,2.7,3.4,4,4.9c1,1.2,2,2.3,2.9,3.6
		c2.2,3.1,3.3,6.7,3.6,10.4c0.1,1.4,0.3,2.8,0.5,4.4c0.2-0.2,0.3-0.4,0.3-0.5c3.9-8.8,8.7-17,14.2-24.9c0.2-0.3,0.2-0.8,0.1-1.1
		c-2.1-6.3-4.2-12.7-4-19.5c0.1-3.1,0.7-6.3,1.1-9.4c0.1-0.6,0.4-1.3,1.1-1.1c0.5,0.1,1.1,0.6,1.2,1.1c1.1,3.8,2.2,7.7,3.1,11.6
		c1.1,4.6,1.5,7.6,0.5,13.8c4.7-6.7,9.3-13.2,12.1-20.9c-0.7-0.2-1.5-0.3-2.1-0.6c-1.2-0.6-2.4-1.2-3.4-2c-3.2-2.6-6.7-4.9-9.2-8.2
		c-2.4-3.1-2.9-6.7-2.8-10.5c0-0.2,0-0.5,0.1-0.7c0.9-1,0.6-2,0.4-3.2c-0.3-2.1,0.1-4.2,1.3-6.1c0.4-0.6,0.6-1.4,0.8-2.1
		c0.5-1.8,2-2.5,3.6-2.8c2-0.5,3.9-0.1,5.5,1.3c0.2,0.1,0.5,0.2,0.7,0.2c2.1-0.8,4.2-0.9,6.4-0.8c0.9-2.8,5.4-5.1,8.3-4.9
		c1.3,0.1,2.3,0.7,3,1.7c1.1,1.5,2.6,2.1,4.4,2.5c3.2,0.7,5.1,4.7,3.8,7.7c-0.2,0.5-0.5,0.9-0.9,1.4c0.8,1.2,1.7,2.4,2.5,3.8
		c0.6,1,1.1,2.2,1.4,3.3c0.5,1.5,0,2.9-0.7,4.3c-0.6,1.2-1.1,2.5-1.5,3.8c-0.4,1.4-1.2,2.5-2.5,3.1c-4.1,2.3-8,5-12.5,6.6
		c-0.3,0.1-0.6,0.4-0.8,0.6c-0.8,1.2-1.9,1.8-3.3,2c-0.3,0-0.6,0.3-0.7,0.6c-2.4,6.1-5.8,11.7-9.5,17.1c-3.5,5-6.8,10-10.2,15
		c-0.1,0.2-0.3,0.5-0.3,0.8c0.2-0.1,0.4-0.3,0.5-0.4c5.8-5.9,13-7.7,21.1-6.6c0.5,0.1,1.1,0.5,1.3,0.9c0.3,0.6-0.1,1.2-0.7,1.6
		c-1,0.7-2,1.4-3,1.9c-4.1,2.2-8.1,4.5-12.3,6.6c-3.7,1.8-7.5,3.6-11.6,4.3c-0.2,0-0.5,0.3-0.6,0.5c-5.4,9.9-8.9,20.6-11.5,31.5
		c0,0.2,0,0.4,0.1,0.6c0.6-1.2,1-2.5,1.7-3.7c1.5-2.6,3-5.4,4.8-7.8c3.2-4.2,7.8-6.4,12.7-8.1c1.4-0.5,2.9-0.9,4.3-1.2
		c0.5-0.1,1.2,0.1,1.4,0.5c0.2,0.4,0,1.2-0.3,1.5c-1.9,1.7-3.2,3.9-4.1,6.2c-2,5-5.1,9.2-8.6,13.2c-2.5,2.8-5,5.6-7.5,8.4
		c0.1,0,0.2-0.1,0.4-0.1c5-2.4,9.9-4.8,14.9-7.3c0.3-0.2,0.7-0.5,0.9-0.8c2.4-4.2,4.8-8.4,7.2-12.5c1.7-2.9,3.6-5.6,5.2-8.5
		c0.4-0.7,0.7-1.7,0.7-2.6c0.1-1.3-0.4-2.5-1.7-3.1c-2.6-1.4-5.1-3.2-8.1-3.7c-1.3-0.2-2.6-0.8-3.9-1.2c-0.3-0.1-0.8-0.6-0.8-0.9
		c0-0.4,0.3-0.9,0.6-1.1c2.5-1.3,5-2.7,7.6-3.8c2.3-1,4.6-0.6,6.7,0.9c1,0.7,1.7,1.7,2,2.9c0.7,2.5,1.5,5,0.5,7.7
		c1.9-2.1,3.8-4.3,5.6-6.4c0.1-0.1,0.1-0.5,0-0.6c-1.1-1.8-1-3.8-1.2-5.7c-0.6-5.4,0.6-10.5,3.1-15.2c0.3-0.6,0.6-1.2,1.4-1
		c0.8,0.2,0.8,0.9,0.9,1.6c0.2,2.3,0.5,4.6,0.8,6.9c0.6,4.8,0.5,6-1.4,10.6c1.2-0.9,2.2-1.6,3.2-2.3c2.3-1.6,4-3.5,5-6.2
		c1.7-4.7,5.4-7.6,9.8-9.5c2-0.9,4.1-1.7,6.1-2.4c0.5-0.2,1.4-0.1,1.7,0.2c0.3,0.3,0.4,1.2,0.2,1.7c-2.1,4.4-4.3,8.8-8.8,11.5
		c-0.8,0.5-1.7,0.9-2.6,1.3c-2,0.8-4,1.4-6,2.2c-0.5,0.2-1,0.5-1.4,0.9c-2,1.5-4.1,3.1-6.1,4.6c1.6-0.2,3.2-0.5,4.7-0.6
		c2-0.2,3.7,0.6,5.3,1.9c1.3,1.1,2.8,2.1,4.2,3c1.4,0.9,2.2,2.1,2.3,3.7c0.1,2,0.1,4.1,0,6.1c0,1.1-1,1.6-2,1
		c-2-1.3-3.9-2.7-5.1-4.8c-1.2-2.1-2.8-3-5.2-3c-1.5,0-3-0.4-4.5-0.9c-2-0.7-3.8-0.6-5.8-0.1c-0.2,0.1-0.5,0.3-0.6,0.4
		c-3.8,4.4-7.1,9.1-9.9,14.3c2.2-0.9,4.7-0.8,6.7-2.4c3.4-2.7,6.8-5.2,10.2-7.8c0.2-0.2,0.4-0.3,0.7-0.4c1-0.5,2,0,1.9,1.1
		c-0.2,3.9-1.6,7.2-4.4,10c-4,4-8.9,5.1-14.2,5.8c-1.7,0.2-3.3,0.9-5,1.4c-2.3,0.7-2.2,3.1-3.4,4.5c0.1,0.1,0.1,0.1,0.2,0.2
		c1.9-0.7,3.9-1.4,5.8-2c5.8-2,11.7-3.5,17.8-4.3c3.1-0.4,6.2,0,9.3,0.6c9,1.8,17.6,5,25.9,8.9c2.1,1,4.1,2,6.2,3
		c0.3,0.1,0.5,0.3,0.8,0.4c0.7,0.4,0.9,1,0.7,1.7c-0.2,0.7-0.9,0.7-1.5,0.6c-3.5-0.3-7-0.5-10.6-0.7c-0.3,0-0.6,0-1,0.2
		c1.6,1.1,3.2,2.1,4.8,3.2c6.4,4.3,12.8,8.6,19.2,12.9c0.2,0.1,0.4,0.2,0.5,0.3c0.2,0.4,0.5,0.9,0.4,1.3c-0.1,0.3-0.7,0.6-1.1,0.6
		c-1.2-0.1-2.4-0.4-3.5-0.6c-0.5-0.1-1-0.2-1.5-0.2c0.3,0.2,0.6,0.5,0.9,0.7c2.5,1.9,4.8,4,6.7,6.5c0.5,0.7,0.7,1.3,0,2
		c-0.6,0.5-1.1,0.4-1.7,0.1c-1.1-0.6-2.3-1.1-3.4-1.6c0,0.1-0.1,0.1-0.1,0.2c1.8,1.5,3.5,3.1,5.3,4.6c0.2,0.2,0.5,0.4,0.7,0.6
		c1.5,1.3,1.5,1.4,0.4,2.9c-0.1,0.2-0.3,0.4-0.4,0.6c2.5,2.2,5,4.3,7.6,6.5c0.8,0.6,1.2,1.3,0.7,2.3c-0.1,0.2,0,0.6,0.2,0.9
		c1.3,2.2,2.5,4.3,3.8,6.5c0.1,0.3,0.4,0.5,0.6,0.7c1.6,1.5,3.3,3,4.8,4.6c1.2,1.2,1.2,1.9,0.1,3c-0.3,0.3-1,0.5-1.5,0.5
		c-5.9-0.1-11.7-0.3-17.6-0.4c-9.6-0.2-19.2-0.5-28.8-0.7c-14.8-0.4-29.6-0.8-44.5-1.1c-12.5-0.3-25-0.6-37.5-0.9
		c-0.5,0-1.1,0.2-1.5,0.5c-4.5,3.2-9.5,4.2-14.9,3.8c-4.2-0.3-8.2-1.5-11.6-4c-0.1-0.1-0.2-0.1-0.2-0.2c-1.2-1.6-2.8-1.5-4.6-1.4
		c-8.6,0.4-17.1,0.6-25.7,0.9c-10.8,0.4-21.6,0.8-32.4,1.1c-10.6,0.4-21.2,0.7-31.8,1.1c-10.5,0.4-21,0.7-31.5,1.1
		c-1.8,0.1-3.6,0.1-5.4,0.2c-1.9,0-2.9-1.3-2.2-3.1c0.5-1.4,1.4-2.5,2.6-3.1c0.2-0.8,0.3-1.6,0.6-2.1c1.5-2.4,3.2-4.8,4.8-7.2
		c0.9-1.3,1.7-2.6,2.6-3.9c0.2-0.3,0.5-0.6,0.9-0.8c1.8-1.4,3.7-2.9,5.5-4.3c0.3-0.2,0.6-0.5,0.8-0.8c-0.1,0-0.2,0.1-0.4,0.1
		c-0.8,0.3-1.4,0-1.8-0.6c-0.4-0.6-0.1-1.2,0.3-1.7c2.4-3,4.8-5.9,7.3-8.9c0.2-0.3,0.4-0.5,0.5-1c-0.7,0.4-1.4,0.7-2,1.1
		c-0.7,0.4-1.3,0.6-1.9-0.2c-0.7-0.8-0.7-1.3,0.1-2.1c3.1-2.9,6.2-5.9,9.3-8.8c0.2-0.2,0.5-0.4,0.8-0.6c-0.1-0.1-0.1-0.2-0.2-0.3
		c-1.6,0.4-3.1,0.9-4.7,1.3c-0.7,0.2-1.2,0.1-1.5-0.6c-0.3-0.6,0-1.2,0.6-1.5c0.3-0.2,0.5-0.3,0.8-0.4c3.1-1.6,6.2-3.2,9.3-4.8
		c0.6-0.3,1.2-0.6,2-1.1c-0.9,0-1.5,0-2.1,0c-0.9,0-1.9,0.1-2.8,0.1c-0.6,0-1.2,0-1.4-0.8c-0.2-0.8,0.2-1.2,0.9-1.5
		c1.2-0.6,2.5-1.1,3.8-1.6c4.3-1.7,8.6-3.5,13-5.1c5-1.8,10-3.5,15.1-5.2c2.4-0.8,5-0.5,7.4-0.2c2.7,0.4,5.3,0.9,8.1,1.4
		c-0.5-0.8-1.1-1.5-1.6-2.3c-0.8-1.4-1.7-2.7-2.5-4.1c-0.3-0.5-0.7-0.8-1.3-0.7c-2.6,0.6-5.2,0.2-7.7-0.3c-1.2-0.2-2.5-0.7-3.6-1.4
		c-2.5-1.4-4.6-3.3-6.4-5.5c-0.2-0.3-0.5-0.5-0.5-0.8c-0.1-0.5-0.2-1.3,0.1-1.5c0.4-0.3,1.1-0.3,1.6-0.2c0.8,0.2,1.4,0.8,2.1,1
		c1.8,0.5,3.6,0.9,5.4,1.2c2.1,0.3,4,1.1,5.7,2.3c0.4,0.3,0.8,0.5,1.4,0.7c-0.8-1-1.4-2.2-2.4-3.1c-1.6-1.6-3.1-3.3-5-4.4
		c-1.8-1-3.9-1.3-6-1.8c-1.5-0.4-3-0.1-4.4,0.6c-2.1,1.1-4.3,2.1-6.5,3c-1.4,0.6-2.5,1.6-3.2,3c-0.3,0.5-0.5,0.9-0.8,1.4
		c-0.5,0.7-1.2,0.8-1.9,0.3c-1.7-1-2.5-2.8-1.7-4.6c1-2.2,2.1-4.4,3.4-6.4c1.3-1.9,3.2-2.7,5.7-2.8c3.5-0.1,6.6,0.7,9.7,2
		c-0.2-0.2-0.3-0.4-0.5-0.5c-3-2.8-5.5-6.1-7.9-9.4c-0.2-0.3-0.6-0.6-0.9-0.9c-1.8-1.7-3.7-3.3-5.5-5.1c-2.7-2.8-4.4-6.1-5.4-9.9
		c-0.1-0.4-0.3-0.9-0.2-1.3c0-0.4,0.3-0.9,0.6-1.1c0.3-0.1,0.9-0.1,1.3,0.2c5.8,4,9.7,9.5,11.8,16.3c0,0.2,0.1,0.3,0.2,0.5
		c1.4,1.8,2.8,3.7,4.3,5.4c-0.4-1.1-0.9-2.2-1.2-3.3c-0.5-1.6-0.9-3.3-1.2-4.9c-0.5-2.6,0.6-4.6,2.3-6.4c1-1,2.2-0.7,2.6,0.6
		c0.4,1.1,0.6,2.3,1,3.3c1.5,3.4,1.8,6.9,1.7,10.5c0,1.8,0.4,3.6,0.7,5.3c0.1,1,0.6,1.7,1.5,2.3c1.1,0.7,2,1.6,3.3,2.6
		c-1.3-3.9,0.7-7.2,1.1-10.7c0.1-0.6,0.5-1.2,0.9-1.6c1.3-1.1,2.7-2.2,4.1-3.2c0.4-0.3,1.3-0.3,1.6,0c0.4,0.3,0.6,1.1,0.5,1.5
		c-0.8,4.5-0.6,9.1-2.2,13.6c-0.6,1.8-0.3,4-0.3,5.9c0,0.6,0.4,1.3,0.7,1.8c1,1.8,2.1,3.5,3.2,5.3c0.2,0.3,0.3,0.5,0.6,0.7
		c-0.2-0.7-0.5-1.4-0.7-2.2c-1.3-3.6-0.3-6.7,2.2-9.4c0.6-0.6,1.1-1.6,2.2-1.3c1.1,0.3,1,1.3,1.3,2.2c1.1,3.5,1.2,7.1,1.1,10.8
		c0,2.6,0,5.2,0,7.8c3.7,1.2,7.4,2.4,11.1,3.6c0.1,0,0.1-0.1,0.2-0.1c-0.4-0.4-0.8-0.7-1.2-1.1c-3.4-3.3-5.1-7.4-5.9-12
		c-0.1-0.5,0.1-1.4,0.5-1.5c0.4-0.2,1.3,0,1.7,0.3c3,2.9,6.8,4.6,10.4,6.4c5,2.5,9.5,5.6,13.2,9.9c0.1,0.2,0.3,0.4,0.4,0.6
		c0.1-0.1,0.2-0.1,0.2-0.2c-0.3-0.5-0.6-1-1-1.4c-4.2-4.7-8.3-9.4-12.5-14.1c-7.4-8.4-12.9-17.8-15.8-28.7c-0.2-0.6-0.5-0.9-1-1
		c-5.9-0.8-11.3-3.1-16.3-6.1c-5.8-3.4-10.7-7.9-14.5-13.4c-1.2-1.6-1.8-3.6-2.6-5.5c-0.5-1.2-0.9-2.5-1.2-3.8
		c-0.1-0.5,0.1-1.3,0.4-1.4c0.4-0.2,1.1,0,1.6,0.2c0.4,0.2,0.6,0.6,0.9,0.9c1.6,2.1,3.7,3.7,6,5c3.6,2.2,7.2,4.2,10.7,6.6
		c4.2,2.9,8.4,6.1,12,9.8c1,1.1,2,2.2,3,3.3c-1.5-9.1-3.2-18.2-1.2-27.1c-1.1-1-2.2-1.7-2.9-2.7c-1.3-2-3.3-3.4-5-5
		c-4-3.7-8.4-7-11.5-11.6c-1.4-2.1-2.6-4.3-3.5-6.6c-1.1-2.6,0-5.7,2.5-7.2c0.6-0.4,1.4-0.6,2.2-0.7c0.7-0.1,0.9-0.3,1.1-0.9
		c0.1-0.5,0.3-0.9,0.4-1.3c1.3-4.2,5.4-7,9.8-6.9c1.2,0,2.4-0.2,3.5-0.5c2.8-0.7,5.7-1.3,8.5-0.1c1.7,0.8,3.2,1.9,4.7,3
		c0.6,0.4,1.2,0.8,2.1,0.6c1.5-0.3,2.8,0.1,3.8,1.3c0.8,0.9,1.5,1.9,2.4,2.8c0.5,0.6,1.1,1.1,1.8,1.5c1.5,0.7,2.1,1.9,2.2,3.5
		c0,1,0.2,1.9,0.5,2.8c0.5,2.2,0.4,4.3-0.3,6.5c-1.2,3.6-3.1,6.8-5.8,9.4c-1.5,1.4-2.7,3.1-4.1,4.6c-1.9,2-3.9,3.9-5.9,5.8
		c-1.1,1-2.4,1.8-3.9,1.8c-0.7,0-0.7,0.6-0.7,1c-0.2,2.8-0.7,5.5-0.6,8.3c0.4,8.4,1.7,16.7,3.9,24.9c1,3.8,2.7,7.3,4.8,10.6
		c-0.1-0.6-0.2-1.2-0.4-1.7c-0.1-0.6-0.2-1.3-0.3-1.9c-0.3-2-0.8-4-0.8-6c0-2.3,0.2-4.7,0.8-7c0.3-1.4,1.3-2.6,2.1-3.8
		c0.5-0.8,1.8-0.5,1.9,0.5c0.3,4.5,2.8,8.4,3.5,12.8c0.6,3.6,0.4,7.2-0.1,10.8c-0.3,2-0.2,4,0.4,5.9c0.2,0.6,0.1,1.2,0.2,1.8
		c0.1,0.4,0.3,0.8,0.5,1.1c2.9,3.3,5.9,6.5,8.8,9.7c4.2,4.8,8.4,9.5,11.4,15.1C123.9,204.7,124,204.8,124.2,204.9z M258.4,198.8
		c-0.6-0.3-1-0.4-1.3-0.6c-0.4-0.2-0.8-0.4-1.2-0.5c-8.1-3.7-16.4-6.8-25.1-8.7c-2.2-0.5-4.5-0.9-6.8-0.9c-2.2,0-4.5,0.5-6.7,1
		c-20.2,4.4-38.4,13.2-54.5,26.2c-3.8,3-7.2,6.5-10,10.4c-0.5,0.8-0.8,1.5-0.8,2.5c0.1,2.7,0,5.3,0,8c0,0.3,0,0.6,0.1,0.9
		c1-1.1,1.8-2.2,2.7-3.1c4.8-5.1,10.4-9.1,16.4-12.6c12.6-7.4,26-12.6,40-16.5c15.2-4.2,30.6-6.9,46.4-6.1
		C257.8,198.8,257.9,198.8,258.4,198.8z M41.9,202.2c0,0.1,0,0.1,0,0.2c0.2,0,0.4,0,0.6,0c12.3-0.3,24.4,0.7,36.5,3
		c15.4,2.8,30.3,7.4,44.4,14.5c9.6,4.8,18.5,10.5,26.1,18.2c0.1,0.1,0.2,0.2,0.5,0.4c0-2.7-0.1-5.2,0-7.7c0.1-1.9-0.6-3.4-1.8-4.6
		c-1.3-1.4-2.7-2.7-4.3-3.9c-6.3-5-13.4-8.7-20.5-12.3c-7.8-4-15.8-7.4-24-10.4c-8.3-3-16.7-5.8-25.6-6.9c-2.1-0.3-4.4-0.5-6.3,0.1
		c-6.7,2.2-13.2,4.7-19.8,7.2C45.8,200.6,43.8,201.4,41.9,202.2z M270.1,216.2c-0.3-0.2-0.4-0.3-0.5-0.4
		c-7.2-4.9-14.5-9.7-21.7-14.6c-0.3-0.2-0.8-0.4-1.2-0.3c-4.9,0.5-9.9,0.8-14.8,1.6c-11.3,1.7-22.3,4.7-33.1,8.5
		c-11.3,4.1-22.2,9-32.2,15.8c-4.8,3.2-9.2,6.8-12.7,11.5c-0.4,0.5-0.7,1-1,1.5c1.2,0.7,2,0.2,2.6-0.8c0.4-0.7,1-1.2,1.6-1.8
		c3.7-3.7,8-6.4,12.6-8.6c12.1-5.9,25-9.2,38.2-11.6c9.2-1.6,18.4-2.6,27.7-2.9c9.2-0.3,18.4-0.1,27.5,1.1
		C265.4,215.4,267.6,215.8,270.1,216.2z M291.6,254.8c-0.4,1-1.1,1.1-1.9,1.1c-2.7-0.1-5.3-0.1-8-0.2c-22.9-0.5-45.8-1.1-68.6-1.6
		c-16.3-0.4-32.6-0.7-48.9-1.1c-1.1,0-2.1,0.2-3,0.9c-2.2,1.7-4.8,2.3-7.4,2.5c-3.7,0.4-7.3-0.1-10.8-1.4c-1.3-0.5-2.5-1.2-3.3-2.3
		c-0.6-0.8-1.3-1-2.2-1c-13.4,0.3-26.8,0.7-40.2,1c-12.6,0.3-25.2,0.6-37.9,0.9c-16,0.4-32,0.8-48.1,1.1c-1.5,0-2.6,0.7-3.8,1.3
		c-0.3,0.1-0.6,0.5-0.7,0.8c-0.2,0.3-0.2,0.7-0.3,1.1c0.3,0.1,0.7,0.2,1,0.2c10.1-0.3,20.2-0.7,30.4-1c18.1-0.6,36.2-1.3,54.3-1.9
		c14.2-0.5,28.4-1,42.6-1.5c0.4,0,0.7-0.1,1.1-0.2c0.8-0.3,1.3-0.1,1.8,0.6c0.2,0.3,0.5,0.6,0.8,0.9c1.8,1.6,3.8,2.7,6.1,3.3
		c6.9,1.9,13.4,1.6,19.4-2.8c0.4-0.3,1.1-0.6,1.6-0.5c15.4,0.4,30.8,0.8,46.3,1.2c11.6,0.3,23.2,0.6,34.8,0.9
		c15.6,0.4,31.2,0.8,46.9,1.2c0.2,0,0.5,0,0.9-0.1C293.5,256.8,292.6,255.8,291.6,254.8z M159.2,246.1c-0.1,0.1-0.1,0.2-0.2,0.3
		c0.3,0.1,0.7,0.3,1,0.3c17.9,0.2,35.8,0.3,53.7,0.5c23.7,0.2,47.4,0.4,71.1,0.6c0.4,0,0.7,0,1.3,0c-0.6-1.1-1.1-2-1.7-2.8
		c-0.3-0.4-0.9-0.9-1.5-0.9c-3.4-0.2-6.8-0.3-10.2-0.4c-5.1-0.2-10.2-0.5-15.4-0.8c-5.5-0.3-11-0.9-16.5-1c-8-0.2-16.1-0.2-24.1-0.2
		c-7.1,0-14.3,0.1-21.4,0.4c-4.8,0.2-9.6,0.6-14.4,1.1c-3.5,0.3-7,0.7-10.4,1.2C166.8,244.8,163,245.5,159.2,246.1z M167,235.3
		c0,0.1,0.1,0.2,0.1,0.2c0.1,0,0.2,0,0.3,0c9.2-2.9,18.7-4.3,28.2-5.1c7.8-0.6,15.7-1,23.5-1.2c10.1-0.2,20.2,0.1,30.3,0.9
		c7.6,0.6,15.1,1.4,22.7,2.2c1.3,0.1,2.6,0.3,3.9,0.5c-2.5-2.4-5-4.6-7.5-6.9c-0.9-0.8-1.9-1.3-3.1-1.5c-1.2-0.2-2.5-0.4-3.7-0.6
		c-10.5-1.5-21.1-1.6-31.7-1.1c-10.2,0.5-20.3,1.6-30.4,3.3c-8.8,1.5-17.6,3.5-26,6.6C171.4,233.4,169.2,234.4,167,235.3z
		 M24.1,231.5c2.6-0.7,4.9-1.4,7.3-1.9c9.9-2.2,19.9-2.8,30-2.9c16.4-0.2,32.7,1.2,48.9,4c9.7,1.7,19.4,3.9,28.6,7.4
		c0.1,0,0.2,0,0.3,0.1c-0.4-0.3-0.8-0.6-1.2-0.7c-5.2-2-10.3-4.2-15.5-6c-13-4.3-26.4-7.1-40-9.1c-12.3-1.8-24.6-3-37-2.5
		c-4.1,0.1-8.3,0.9-12.4,1.3c-0.4,0-0.8,0.3-1,0.5C29.4,224.9,26.8,228.1,24.1,231.5z M20.2,239.3c4.1-0.5,8.3-1.1,12.5-1.6
		c3.4-0.4,6.9-0.8,10.3-1.1c4.1-0.3,8.2-0.4,12.3-0.7c5.5-0.4,11-1,16.5-1.3c4.7-0.3,9.4-0.4,14.1-0.5c4.6,0,9.2,0.1,13.8,0.2
		c2.7,0.1,5.4,0.4,8,0.8c6.2,0.9,12.5,1.6,18.7,2.8c5.8,1.2,11.5,2.8,17,5.1c0.3,0.1,0.6,0,0.9,0c0-0.1,0-0.2,0-0.3
		c-0.3-0.2-0.6-0.3-0.9-0.5c-3.8-1.5-7.6-3.1-11.4-4.4c-9.6-3.1-19.5-5-29.4-6.4c-9.5-1.4-19.1-2.2-28.7-2.6c-9-0.3-18-0.3-27,0.5
		c-5.8,0.5-11.6,1.3-17.3,2.7c-0.3,0.1-0.7,0.2-0.9,0.3c-2.6,2.1-5.3,4.2-7.9,6.3C20.5,239,20.3,239.2,20.2,239.3z M29.3,219.8
		c0.2,0,0.3,0,0.4,0c6.5-1.8,13.3-2.2,20-2.2c9.8-0.1,19.6,0.8,29.4,2.1c12.9,1.7,25.7,4.2,38.2,7.8c8.9,2.6,17.7,5.5,25.9,10.1
		c0.1,0.1,0.2,0.1,0.3,0.1c0-0.1,0.1-0.1,0.1-0.2c-1.7-1.1-3.5-2.3-5.2-3.4c-8.1-4.7-16.8-8.1-25.6-11c-12.4-4.1-25.1-7.2-38-9.4
		c-10.6-1.8-21.2-3-32-2.7c-4.2,0.1-4.2,0.1-7.2,2.9c-0.1,0.1-0.2,0.2-0.4,0.3C33.2,216.1,31.3,217.9,29.3,219.8z M36.9,209.1
		c0,0.1,0,0.1,0,0.2c1.4-0.1,2.8-0.2,4.2-0.3c10.1-0.5,20.2,0.5,30.2,2c12.7,1.9,25.1,4.8,37.3,8.6c10.3,3.2,20.4,6.9,29.9,12.2
		c0.1,0.1,0.3,0.1,0.4,0.1c-0.1-0.2-0.3-0.4-0.5-0.5c-8.5-6.2-17.8-11-27.7-14.8c-20.3-7.9-41.4-11.9-63.2-12.1
		c-1.1,0-2.1,0.2-3.1,0.8C41.9,206.6,39.4,207.8,36.9,209.1z M158.1,243.6c0.1,0.1,0.1,0.2,0.2,0.3c0.5,0,1,0,1.6-0.1
		c7.4-1.3,14.8-2.4,22.4-3c6.7-0.5,13.3-1,20-1.3c6.6-0.2,13.1,0,19.7-0.1c11.3-0.1,22.5,0,33.7,1c7.6,0.7,15.3,1.1,22.9,1.6
		c1.4,0.1,2.7,0,4.1,0c0-0.1,0-0.2,0-0.3c-1.8-1.6-3.6-3.1-5.5-4.7c0,0.2,0,0.2,0.1,0.3c0.5,0.6,1.3,1.1,0.8,1.9
		c-0.5,0.9-1.4,0.6-2.2,0.5c-0.1,0-0.1,0-0.2,0c-2.5-0.4-5-1-7.6-1.3c-6.6-0.6-13.2-1.4-19.8-1.6c-12-0.4-24.1-0.5-36.2-0.5
		c-9.3,0-18.5,0.1-27.8,0.4c-4.6,0.2-9.2,0.6-13.8,1.3c-4.1,0.6-7.9,2.2-11.5,4.3C158.8,242.8,158.5,243.3,158.1,243.6z M12.5,248.3
		c0.6,0,0.9,0,1.3,0c13.8-0.6,27.7-1.2,41.5-1.7c11.4-0.4,22.8-0.8,34.2-1.1c3.3-0.1,6.6-0.2,10-0.1c9.7,0.1,19.5,0.4,29.2,0.5
		c1.4,0,2.7,0,4.1,0c-0.3-0.2-0.5-0.3-0.8-0.3c-6.3-1.6-12.7-2.1-19.1-2.5c-6.7-0.4-13.5-0.7-20.3-0.8c-7.5-0.1-15,0-22.5,0
		c-4.8,0-9.7,0-14.5,0.2c-5.7,0.2-11.4,0.7-17.1,1.1c-4.8,0.3-9.7,0.7-14.5,1.2c-1.7,0.2-3.4,0.8-5.1,1.1c-0.5,0.1-1.2,0-1.6-0.3
		c-0.6-0.5-0.2-1.1,0.1-1.6c0.4-0.7,0.8-1.4,1.4-2.3c-0.8,0.3-1.6,0.3-1.9,0.7C15.4,244.2,14,246.2,12.5,248.3z M289.3,253.7
		c-0.3-0.8-0.6-1.4-0.9-2.1c-0.5-1.3-1.3-1.7-2.8-1.7c-5.8,0.1-11.6,0-17.4-0.1c-35.4-0.3-70.8-0.6-106.2-1c-0.4,0-0.9,0-1.3,0
		c-0.1,0.1-0.1,0.2-0.2,0.3c0.6,0.6,1.2,1.5,1.9,1.6c1.8,0.3,3.6,0.1,5.4,0.2c20.3,0.5,40.5,0.9,60.8,1.4c20,0.5,40,0.9,60,1.4
		C288.7,253.7,288.9,253.7,289.3,253.7z M273.6,224.3c-2-2-4.1-3.8-6.5-5.1c-1.4-0.7-2.7-1.6-4.2-1.8c-3.8-0.5-7.6-0.9-11.4-1.1
		c-9.8-0.5-19.6-0.1-29.4,0.9c-9.8,1-19.5,2.7-29.1,5.2c-8.5,2.2-16.7,5-24.4,9.2c-1.8,1-3.5,2.1-5.2,3.1c0,0.1,0.1,0.2,0.1,0.2
		c4.6-2.7,9.6-4.5,14.7-6.1c13.9-4.2,28.1-6.4,42.6-7.7c9.7-0.8,19.4-1.2,29.1-0.6c4.9,0.3,9.9,0.9,14.8,1.6
		C267.5,222.6,270.5,223.5,273.6,224.3z M162,95c1.4-2.1,2.9-4,4-6.1c1.8-3.6,3.9-6.9,6.2-10.1c0.7-0.9,1.1-2.2,1.2-3.3
		c0.3-3.5-1.9-5.7-5-5.3c-1.6,0.2-3.3-0.3-4.9-0.4c-0.3,0-0.7,0-1,0.1c-1.1,0.2-2.2,1.2-3.4,0.6c-0.8-0.4-1.4-1-2.1-1.6
		c-0.7-0.6-1.1-0.6-1.6,0.3c-0.2,0.3-0.3,0.6-0.4,0.9c-1.1,3.4-1.3,6.9-1.2,10.5c0,2.4,0.2,4.9,1.3,7.1c1.2,2.5,1.6,5.6,5.2,6.3
		C160.8,94,161.3,94.5,162,95z M19.9,243.5c0.4-0.1,0.6-0.1,0.7-0.1c4.5-1.1,9.1-1.4,13.8-1.6c4.2-0.2,8.4-0.3,12.6-0.6
		c4.3-0.3,8.5-0.9,12.7-0.9c18.8,0,37.7-0.8,56.5,1c4.6,0.4,9.3,1,13.8,1.8c3.9,0.7,7.7,2,11.6,3c0.7,0.2,1.2,0.1,1.2-0.7
		c-0.3-0.1-0.5-0.3-0.7-0.3c-5-1.6-10-3.4-15.1-4.7c-4.9-1.2-10-1.8-15.1-2.4c-4.3-0.6-8.5-1.1-12.8-1.4c-3.9-0.3-7.8-0.2-11.7-0.2
		c-3.2,0-6.4,0.3-9.6,0.4c-2,0.1-4.1-0.1-6.1,0.1c-5.5,0.4-10.9,1.1-16.4,1.3c-7.1,0.3-14.2,0.7-21.2,1.6c-3.7,0.5-7.4,0.9-11.1,1.4
		C21.6,241.1,20.9,242.3,19.9,243.5z M141.3,248.3c-0.3,0-0.5-0.1-0.7-0.1c-7.6-0.1-15.2-0.3-22.8-0.4c-11.4-0.1-22.8-0.4-34.2-0.2
		c-11.3,0.2-22.6,0.9-33.9,1.3c-12.4,0.5-24.8,1-37.1,1.5c-1.5,0.1-2.1,1-2.9,2.1c0.6,0,1,0,1.5,0c15.8-0.4,31.6-0.8,47.5-1.1
		c10-0.2,20-0.5,30-0.7c17-0.4,33.9-0.8,50.9-1.1C140.4,249.5,140.9,249.2,141.3,248.3z M86.5,119.1c0.1-0.3,0.1-0.5,0.1-0.6
		c0-5-0.3-10.1-1.6-15c-0.8-3-2.3-5.8-3.8-8.6c-0.6-1.2-1.9-2-3.3-2.2c-1.2-0.1-2.4-0.2-3.4-1.1c-0.3,0.5-0.6,0.8-0.9,1.2
		c-0.7,1-1.5,1.1-2.4,0.3c-0.6-0.5-1.1-1.1-1.7-1.7c-1-0.9-2-0.9-3.1-0.1c-1.5,1.2-2.1,3.1-1.2,4.7c1.4,2.6,2.8,5.3,4.6,7.7
		c2,2.5,4.4,4.7,6.8,6.9c2.7,2.6,5.6,5,8.4,7.5C85.4,118.5,85.9,118.7,86.5,119.1z M163.8,96.2c1,0.5,1.7,0,2.5-0.3
		c3-1.1,6-2.3,9-3.5c3.4-1.3,6.7-2.8,9.8-4.9c2-1.3,3.2-2.9,2.9-5.5c-0.1-1.1,0-2.3,0.3-3.4c0.2-1,0.1-1.8-0.6-2.5
		c-1-1.1-2.1-2.1-3.1-3.2c-1.8-1.9-4.9-2-6.8-0.3c-1.2,1.1-1.7,2.6-2.3,4c-0.5,1.1-0.8,2.3-1.4,3.2c-2.3,3.2-4.4,6.5-6.1,10
		C166.8,92.1,165.2,94,163.8,96.2z M210.2,114.7c1.1,0.1,1.9,0.1,2.3-0.8c0.2-0.4,0.6-0.6,0.8-1c3-3.6,5.2-7.4,4.7-12.5
		c-0.4-3.5-0.9-6.8-3.1-9.6c-0.6-0.8-1-1.8-1.3-2.7c-1.1-3.6-1.4-3.8-5.2-3.8c-2.8,0-5.1,1.1-7.1,3c-0.8,0.8-1.1,1.7-0.9,2.8
		c0.1,0.3,0.4,0.5,0.6,0.7c0.5,0.3,1.2,0.5,1.6,0.9c2.2,1.9,3.7,4.1,4.4,7c0.2,0.7,0.3,1.4,0.7,2c1.7,3.1,2,6.5,2.2,9.9
		C210.3,112,210.2,113.4,210.2,114.7z M151.7,203.2c0.2-0.2,0.3-0.4,0.4-0.6c2.5-4.1,4.9-8.2,7.4-12.2c2.8-4.4,5.1-9,7.2-13.8
		c1.2-2.7,2.3-5.5,3.4-8.3c0.7-1.7,1.5-3.3,2.3-5.1c-7.2,4.2-13.3,9.4-17.7,16.6c-3.5,5.7-6.6,18.3-5.5,23.4c0-0.1,0.1-0.2,0.1-0.3
		c0.2-0.7,0.4-1.5,0.5-2.2c0.9-5.2,3.2-9.8,6.3-14.1c0.7-0.9,1.5-1.2,2-0.7c0.7,0.7,0.2,1.3-0.3,1.9
		C154.6,192.5,152.4,197.5,151.7,203.2z M88.8,116.6c0.1,0,0.1,0,0.2,0.1c0.2-0.3,0.4-0.5,0.5-0.8c2.1-3.4,3.9-7,5.3-10.7
		c0.4-1.1,0.6-2.2,0.3-3.4c-0.2-0.7-0.2-1.4-0.2-2.1c0.1-2,0-4-0.6-5.9C94,92.9,94,92,94,91.2c0.1-2.1-0.9-3.6-2.4-4.8
		c-2-1.5-4.2-2-6.7-1.9c-2.8,0.2-5.4,2.8-5.3,5.6c0,0.4,0.3,0.8,0.6,1.1c0.9,0.9,2.2,1.5,2.8,2.6c1.4,2.4,2.8,4.9,3.5,7.6
		c0.9,3.2,1.3,6.6,1.8,10C88.6,113.1,88.6,114.9,88.8,116.6z M153.7,220.6c0.1,0.1,0.2,0.2,0.4,0.2c0.1-0.1,0.1-0.3,0.3-0.4
		c4.3-4.8,9.2-8.8,14.5-12.4c1.1-0.7,1.5-1.6,1.7-2.8c0.7-4.7,1.1-9.5,2.2-14.2c1.1-5,2.7-9.8,4.2-14.7c0.2-0.7,0.1-1.1-0.4-1.6
		c-0.7-0.6-1.3-1.4-2-2.1c-0.8-0.9-1.6-1.9-2.6-2.9c-1.4,3.5-2.8,6.9-4.1,10.4c1.3-0.7,2.6-1,3.3-2.4c0.2-0.3,0.6-0.6,1-0.8
		c1.1-0.6,2-0.4,2.6,0.3c0.7,0.9,0.7,2.4-0.1,3.1c-1.1,1-2.5,1.7-4,1.2c-1.1-0.3-1.8,0.1-2.4,0.9c-0.5,0.8-1.1,1.7-1.2,2.6
		c-0.2,2.2-0.1,4.4-0.1,6.8c0.3-0.4,0.5-0.6,0.7-0.9c0.5-0.6,0.9-1.4,1.5-1.8c0.4-0.3,1.2-0.3,1.7,0c0.7,0.4,0.9,2,0.4,3.1
		c-0.4,0.9-1.3,1.4-2.3,1.2c-1.2-0.2-2.9,0.7-3.2,1.8c-1.1,3.9-3.4,7.1-5.2,10.7c-0.2,0.3-0.3,0.6-0.5,0.9c0.1,0.1,0.2,0.2,0.3,0.3
		c0.7-0.5,1.4-1,2-1.6c0.5-0.5,0.9-1.1,1.5-1.5c0.5-0.3,1.3-0.4,1.9-0.2c1,0.4,1.4,2.1,0.8,3.2c-0.6,1.2-1.9,1.7-3,1.1
		c-0.2-0.1-0.6-0.2-0.8-0.1c-1,0.4-2,0.7-2.9,1.2c-0.6,0.3-1.4,0.7-1.7,1.3C156.5,213.9,155.1,217.3,153.7,220.6z M177.1,235.1
		C177.1,235.1,177.1,235.1,177.1,235.1c5.8-0.1,11.6-0.5,17.4-0.5c11.7-0.1,23.4-0.3,35.1-0.1c9,0.1,17.9,0.6,26.8,1.1
		c4.6,0.2,9.3,0.8,13.9,1.3c1.4,0.1,2.7,0.4,4,0.7c-0.4-0.7-0.8-1.3-1.4-1.7c-1-0.8-2.1-1.6-3.5-1.7c-3-0.3-6-0.6-8.9-0.9
		c-9.8-1-19.7-1.6-29.6-1.7c-13.9-0.2-27.7,0.1-41.5,1.8C185.3,233.7,181.2,234.5,177.1,235.1z M90.7,118.1c0.1,0.1,0.1,0.2,0.2,0.2
		c1.4-1,2.9-1.9,4.2-3.1c2.3-2.3,4.4-4.8,6.6-7.2c2.5-2.6,3.9-5.7,4.8-9c0.2-0.8,0.2-1.8,0.1-2.7c-0.2-1.5-0.6-3.1-0.8-4.6
		c-0.1-0.8-0.4-1.4-1.1-1.7c-1.2-0.5-2.1-1.5-2.8-2.6c-0.5-0.9-1.3-1.7-2.1-2.4c-0.3-0.3-0.9-0.5-1.3-0.5c-1.5,0.1-2.9,0.7-4.2,1.6
		c1.6,1.7,2,3.6,1.8,5.8c0,0.7,0.2,1.5,0.3,2.3c0.2,1.4,0.3,2.8,0.4,4.2c0.1,1,0,2.1,0.3,3.1c0.3,1.4,0.3,2.6-0.2,3.9
		c-1.2,2.8-2.5,5.6-3.8,8.4C92.4,115.2,91.5,116.6,90.7,118.1z M137.2,204.5c0.1,0,0.3,0,0.4-0.1c0-1.8,0.1-3.6,0.1-5.4
		c0-0.3,0-0.6,0-0.9c0.2-1.6,1.7-2.5,3.1-1.7c0.9,0.5,1.6,1.3,2.2,2.1c0.7,0.9,0.5,2.2-0.4,3.3c-0.7,0.9-1.2,1-2.7,0.6
		c-0.1,0-0.2,0-0.3,0c-0.1,0.3-0.2,0.6-0.2,0.9c-0.1,1.6-0.5,3.3,0.5,4.7c2.5,3.4,5,6.8,7.5,10.2c0.4,0.6,0.9,1.1,1.3,1.7
		c0.1-1,0-2-0.2-2.9c-0.9-4.4-1.8-8.9-2.8-13.3c-0.7-3.1-1.4-6.2-2.3-9.2c-1.3-4.6-4.7-7.8-8.1-11c-0.1-0.1-0.4-0.2-0.6-0.2
		c-1,0.2-2.1,0.4-3.1,0.8c-2.9,1.2-5.9,1.3-8.9,1.1c-0.2,0-0.5,0-1,0c1.7,2.2,3.4,4.3,5,6.4c0.1-0.1,0.2-0.1,0.4-0.2
		c-0.2-0.6-0.4-1.3-0.7-1.9c-0.8-1.3-0.6-2.7,0.6-3.5c1.1-0.8,2.5-0.5,3.4,0.6c0.7,1,0.4,2.6-0.8,3.3c-0.9,0.5-0.7,1.1-0.5,1.9
		c0.3-0.2,0.5-0.5,0.7-0.8c1.3-1.4,2.8-2.7,4.6-3.5c1.1-0.5,1.8-0.1,2,1.1c0,0.3,0.1,0.6,0.1,0.9c-0.2,3.6-0.9,7-2.2,10.4
		c-0.1,0.3-0.1,0.7,0,0.9C135.3,202.2,136.3,203.3,137.2,204.5z M217.7,91.2c2.4,3.5,2.3,7.5,2.6,11.3c0.3,4.2-2.3,7.3-4.1,10.8
		c0.3-0.1,0.6-0.1,0.9-0.3c3.6-2,7.2-3.9,10.7-6c0.6-0.3,0.9-1.1,1.2-1.7c0.6-1.3,1-2.8,1.7-4.1c0.6-1.2,0.9-2.4,0.3-3.5
		c-1.4-2.4-2.9-4.7-4.4-7c-0.3-0.4-0.9-0.6-1.4-0.7C222.7,89.7,220.3,90.2,217.7,91.2z M208.2,112.1
		C208.2,112.1,208.2,112.1,208.2,112.1c-0.1-0.3,0-0.7-0.1-1c-0.2-2.8-0.4-5.6-1.4-8.2c-0.5-1.3-1.1-2.6-1.5-4
		c-0.6-2.2-1.8-3.9-3.4-5.4c-0.4-0.4-0.8-0.4-1.3-0.1c-0.7,0.4-1.5,1-2.3,0.9c-1.7-0.2-2.7,0.8-3.8,1.8c-0.3,0.3-0.5,0.7-0.5,1.1
		c-0.3,4.9,1.7,8.8,5.4,11.9c1.2,1,2.4,2.1,3.6,3c1.3,1,2.6,1.9,4,2.8c0.8,0.5,1.3,0.2,1.3-0.7C208.2,113.5,208.2,112.8,208.2,112.1
		z M166.1,98.3c1.9,1.2,3.6,2.7,6,2.8c2,0.2,4,0.4,6.1,0.7c1.1,0.2,2.3,0.3,3.3,0.7c2.7,1,6.3-0.8,7.1-3.6c1-3.6-0.4-6.8-1.7-10
		C180.5,93.3,173.2,95.4,166.1,98.3z M109,141.4c-0.4,1.9-1.8,2.7-3.6,3.1c-0.9,0.2-1.2,0.9-1,2.1c0.9,5.9,3.8,10.5,9.4,12.9
		c1.2,0.5,2.6,0.7,4,1.2c0-0.5,0-0.7,0-0.9c-0.2-2.2-0.3-4.4-0.6-6.6c-0.4-3.4-1.6-6.7-3.5-9.5c-0.7-1.1-1.5-1.9-3-1.8
		C110.2,141.8,109.7,141.6,109,141.4z M160,252c-1.1-1.9-2.8-3.4-3.1-5.7c0-0.1-0.2-0.2-0.2-0.3c-0.1-0.4-0.3-0.7-0.3-1.1
		c0-0.9-0.4-1.7-1.2-2.1c-3.3-1.9-8.3-0.5-10,2.9c-1,2-2,4.1-3.7,5.7C143.9,254.6,155.5,255.7,160,252z M172.8,160.6
		c1-0.5,2-0.9,3.2-1.4c-1.1-1.8-2-3.7-3.2-5.2c-4.1-5.2-8.5-10-12.2-15.6c-0.1-0.1-0.2-0.1-0.4-0.2c-1.3,9.7,2,17.9,8.1,25.1
		c1-0.6,1.8-1.2,2.6-1.7c-1-1.6-1.9-3.1-2.8-4.6c-0.4-0.6-0.7-1.3,0.1-1.7c0.8-0.5,1.2,0.2,1.6,0.8c0.2,0.3,0.3,0.5,0.5,0.8
		C171.1,158,171.9,159.3,172.8,160.6z M176.4,200.4c0.1,0.1,0.2,0.1,0.3,0.2c7.7-7.5,14.7-15.4,18.4-25.8c-1.3,0.5-2.7,1-4.1,1.6
		c-4.4,1.9-8,4.8-10.3,9c-1.6,2.9-3.1,5.9-4.5,8.9c-0.8,1.7-1.3,3.5-2,5.3c0.4-0.2,0.6-0.5,0.8-0.8c2.5-4.2,5.8-7.8,9.3-11.2
		c0.5-0.5,1.2-1,1.8-0.2c0.6,0.6,0.1,1.2-0.4,1.7c-0.1,0.1-0.3,0.3-0.4,0.4c-2.2,2.5-4.4,4.9-6.5,7.4
		C177.8,198,177.1,199.2,176.4,200.4z M83.8,150.8c-0.6-0.3-1.3-0.7-1.9-1c-4.1-1.9-7.7-4.4-11.2-7.3c-0.4-0.3-0.8-0.6-0.9-1
		c-0.1-0.4,0-1,0.1-1.4c0.4,0.1,1,0,1.3,0.2c2.3,1.6,4.5,3.4,6.8,5c1.3,0.9,2.8,1.5,4.2,2.3c0-0.3-0.2-0.5-0.4-0.7
		c-4.3-4.1-8.9-7.6-13.9-10.8c-3.5-2.2-7.1-4.4-10.7-6.6c-0.5-0.3-0.9-0.7-1.5-1.1C58.5,136.9,71.6,147.7,83.8,150.8z M117.5,202.7
		c0.1-0.1,0.1-0.1,0.2-0.2c-2.4-2.8-4.7-5.8-7.8-7.8c-5.2-3.2-10.5-6.1-15.9-9.2c0.1,0.5,0.2,0.8,0.3,1.1
		c2.2,6.5,6.9,10.6,12.8,13.5c1.7,0.8,3.4,1.4,5.2,2.2c0.2,0.1,0.5,0.2,0.8,0.3c-0.5-0.5-1.1-0.8-1.6-1.2c-0.9-0.6-1.7-1.2-2.5-1.8
		c-0.5-0.4-0.7-1-0.2-1.5c0.3-0.2,1-0.2,1.4,0c1.8,1.1,3.5,2.3,5.3,3.4C116,201.9,116.7,202.3,117.5,202.7z M141.8,153.8
		c0.1,0,0.1,0,0.2,0.1c1-1.4,2-2.7,2.9-4.1c2.6-3.8,5.3-7.5,7.8-11.4c2.3-3.6,4.2-7.5,7.1-10.8c0.1-0.1,0.1-0.2,0.2-0.5
		c-2.1,1.2-4,2.5-6,3.5c-3.4,1.6-6.2,3.9-8.5,7c-2.6,3.6-4,7.5-4.5,11.9c0.1-0.1,0.2-0.1,0.2-0.1c0.1-0.2,0.3-0.5,0.4-0.7
		c1.2-2.8,2.7-5.3,4.7-7.6c0.4-0.5,0.8-1,1.4-1.3c0.3-0.2,1-0.1,1.1,0.1c0.2,0.3,0.2,0.8,0.1,1.2c0,0.3-0.3,0.5-0.5,0.7
		c-2.7,3-4.4,6.5-5.9,10.2C142.2,152.7,142,153.2,141.8,153.8z M175.3,72.4c1.2-1.6,2.7-2.7,4.7-3c2-0.2,3.8,0,5.5,1.4
		c0.1-1.4,0.6-2.7-0.7-3.6c-1.4-1-2.9-1.9-4.7-2c-3.3-0.2-6.6-0.7-9.7-2.2c-3.1-1.4-6.8,1.1-7.3,4.4c1.6,0.5,3.2,0.9,4.9,0.7
		c0.8-0.1,1.7-0.1,2.5,0C172.9,68.6,174.4,70.2,175.3,72.4z M136,127.3c-1.1-2.6-2.1-5.1-3.1-7.5c-0.2-0.5-0.4-1.1-0.5-1.6
		c-0.1-0.6,0-1.2,0.7-1.2c0.4,0,1,0.4,1.1,0.8c0.7,1.7,1.2,3.5,2,5.1c1.1,2.3,2.4,4.5,3.7,6.7c0.2-0.2,0.2-0.4,0.2-0.5
		c-0.8-6.2-3-11.9-6.7-17c-1.9-2.6-3.7-5.2-4.9-8.2c-0.3-0.7-0.6-1.4-0.8-2.2C126.6,111.5,130.1,119.8,136,127.3z M151.1,222.4
		c0.7-2,1.4-3.7,2-5.5c1.5-4.6,3.8-8.8,6.3-13c1.6-2.8,1.3-4.8-1.2-7c-1.7,2.8-3.4,5.6-5.1,8.4c-1,1.8-2,3.6-2.7,5.5
		c-0.4,0.9-0.3,2-0.2,3c0.1,1.7,0.5,3.3,0.7,4.9C151,219.9,151,221.1,151.1,222.4z M228,89c1.1-2,0.1-4.8-2-5.3
		c-2.2-0.5-4.1-1.3-5.5-3.3c-0.4-0.5-1.1-1-1.7-1c-2.3-0.1-4.1,1-5.6,2.6c-0.1,0.2-0.1,0.8,0.1,0.9c1.4,0.9,2,2.3,2.4,3.8
		c0.3,0.9,0.6,1.8,0.9,2.7c1.4-0.4,2.7-0.9,4-1.1C223.1,87.9,225.7,87.2,228,89z M77.6,90.7c0-0.5,0-0.7,0.1-0.9
		c0.2-3.3,2.9-6.6,6.1-7.1c2.7-0.4,5.4-0.2,7.8,1.2c1.5,0.9,1.5,0.8,2.8-0.3c-0.7-0.5-1.3-1-2-1.5c-1.6-1.1-3.3-1.8-5.2-1.6
		c-1.4,0.1-2.7,0.5-4.1,0.7c-1.2,0.2-2.4,0.6-3.6,0.5c-3.6-0.3-7.2,2-8.4,5.4c-0.2,0.6-0.4,1.1-0.6,1.7c-0.1,0.3,0,0.6,0.2,0.9
		c0.4,0.5,0.9,1,1.4,1.7c0.2-0.3,0.2-0.5,0.3-0.6c1.3-1.5,2.1-1.6,3.8-0.5C76.5,90.5,77,90.5,77.6,90.7z M133,202.6
		c-2,2.3-4,4.4-6,6.6c7.3,3.9,14.3,7.8,20.6,13.1c-0.1-0.4-0.3-0.7-0.5-1c-1.6-1.8-3.3-3.6-5-5.4c-1.6-1.8-3.7-2.5-6-2.6
		c-2.1-0.1-3.4-1.8-2.8-3.8c0.4-1.5,1.6-2.1,3-1.4c0.5,0.3,1,0.6,1.5,0.9c0,0,0.1-0.1,0.1-0.1C136.3,206.9,134.7,204.8,133,202.6z
		 M210.6,146.4c-4.2,0-8.1,0.3-11.7,2.2c-3.9,2.1-7,5.2-10,8.4c0,0,0,0.1,0,0.2C192,156.5,206.9,149.2,210.6,146.4z M119.7,158
		c0.1,0,0.2,0,0.3,0.1c0.3-1.3,0.6-2.6,0.8-3.9c0.5-3.4,0.3-6.8-0.1-10.2c-0.1-1.2-0.5-2.3-1.4-3.2c-0.8-0.7-1.5-1.6-2.2-2.4
		c-0.6-0.8-1.3-0.8-2.1-0.4c-0.7,0.3-1.6,1.7-1.5,2.2c0,0.1,0.2,0.3,0.3,0.4c3.3,3.5,4.9,7.7,5.5,12.4
		C119.5,154.6,119.5,156.3,119.7,158z M97.2,150.7c-0.6,2.1-1.1,4.4-0.8,6.6c0.3,2.5,0.7,5.1,1.1,7.6c0.5,2.8,1.4,5.4,2.6,8
		C101.9,165.1,100.6,157.8,97.2,150.7z M229.9,151.1c7-1.6,12.6-6.3,13.9-11.7c-3.3,1.2-6.4,2.5-9.1,4.6
		C232.3,145.8,231,148.3,229.9,151.1z M222.4,172.8c-0.1-0.1-0.2-0.2-0.2-0.2c-1.6,1.3-3.4,2.4-4.9,3.8c-2.8,2.4-5.5,4.8-9.4,5.4
		c-2.2,0.3-4,1.6-5.5,3.2c1.8-0.3,3.5-0.5,5.3-0.8c4.4-0.7,8.5-1.9,11.6-5.3C220.8,177.1,222.1,175.2,222.4,172.8z M235.9,171.5
		c0.1-0.1,0.3-0.1,0.4-0.2c-0.1-1.5-0.1-3.1-0.3-4.6c-0.1-0.5-0.6-1-1.1-1.3c-1.5-1.1-3.1-2.2-4.6-3.3c-1-0.8-2.1-1.3-3.4-1.4
		c-2.6-0.1-5,0.5-7,2.2c2.6,0.8,5.1,1.7,7.8,1.7c1.6,0,2.9,0.7,3.9,1.9c0.5,0.6,0.9,1.3,1.4,1.9C234,169.5,234.9,170.5,235.9,171.5z
		 M197.5,160.1c0,0.1,0.1,0.3,0.1,0.4c4.5,0.4,8,3,11.6,5.3c0-0.1,0.1-0.1,0.1-0.2c0.6-1.6-0.1-3.1-0.4-4.6c-0.4-3-3.2-4.2-5.4-3.5
		C201.5,158.1,199.5,159.2,197.5,160.1z M128.4,177.4c-2-2.4-3.8-4.6-5.7-6.9c-0.1,1.5-0.6,2.4-1.9,2.5c-1,0-2.1-0.4-3.2-0.6
		c-1,1.4-0.8,3.1-0.3,4.8c0.2,0.6,0.6,0.8,1.2,0.7c2.8-0.4,5.5-0.8,8.3-0.4C127.2,177.4,127.7,177.4,128.4,177.4z M131.1,151.5
		c-3.2,4.6-4.2,15.1-1.7,18.4c-0.1-1.2-0.2-2.3-0.2-3.4c0-0.6,0-1.2,0.2-1.7c0.1-0.3,0.7-0.7,1-0.7c0.3,0,0.6,0.5,0.7,0.9
		c0.1,0.3,0,0.7,0,1.1c0,0.7,0,1.5,0.1,2.2c0,0.7,0.1,1.5,0.1,2.2C132.5,164.3,131.6,158.1,131.1,151.5z M58.8,168.8
		c0-0.1-0.1-0.1-0.1-0.2c-0.2-0.1-0.4-0.1-0.6-0.2c-1.9-0.9-3.9-0.5-5.8-0.6c-1.6-0.1-2.9,0.5-3.7,1.7c-1.2,1.9-2.2,4.1-3.3,6.2
		c-0.2,0.4,0.1,0.9,0.1,1.4c0.1,0,0.2,0,0.3,0c0.9-1.5,1.8-3,3.5-3.8C52.5,171.8,55.6,170.3,58.8,168.8z M115.3,171.8
		c0.1,0,0.2,0.1,0.3,0.1c0.5-1,1-2,1.4-3c0.7-1.7,2-2.2,3.5-1.2c0.1,0.1,0.2,0.1,0.3,0.2c-0.8-1.6-1.5-3.2-2.3-4.7
		c-0.1-0.3-0.4-0.6-0.6-0.7c-1.7-0.3-3.5-0.6-5.4-0.9C113.5,164.9,114.4,168.4,115.3,171.8z M126.5,203.7c0.3-0.6,0.5-1,0.6-1.4
		c0.4-1,0.8-2,1.2-2.9c0.3-0.7,0.9-1,1.6-0.7c0.7,0.4,0.6,1,0.3,1.6c-0.5,1.1-1,2.3-1.6,3.7c3.6-3.1,6.1-9.3,5.7-14
		C129.7,193.4,127.2,197.9,126.5,203.7z M130.9,182.3c0-0.1,0-0.3,0-0.4c-1.2,0-2.5,0-3.7,0c-0.8,0-1.6,0.3-2.4,0.3
		c-0.3,0-0.8-0.4-0.9-0.7c-0.1-0.3,0.2-0.8,0.5-1c0.2-0.2,0.5-0.2,0.8-0.3c1.4-0.2,2.8-0.3,4.1-0.4c-5.1-1-10.1-0.1-15.1,1.1
		C119.8,183.3,125.2,184.3,130.9,182.3z M192.6,118.5c-0.9,6.7,0.2,13.2,2.4,19.5C196.7,131.2,194.6,124.8,192.6,118.5z M76.4,159.1
		c-1.3,0.8-2.5,1.7-2.8,3.4c-0.3,1.3-0.4,2.7-0.9,4c-0.8,2.2-0.5,4.2,0.4,6.2c0.3,0.7,0.7,1.4,1,2c0.3-1.4,0.3-2.7,0.6-3.9
		C75.9,167,76.6,163.1,76.4,159.1z M202.1,84.3c0-0.1,0-0.3,0-0.4c-1-0.1-2.1-0.4-3.1-0.4c-1,0.1-2,0.5-2.4,1.6
		c-0.4,0.9-0.6,1.8-1.1,2.5c-0.9,1.4-1,3-1,4.6c0,0.2,0.1,0.4,0.2,0.5c1.1-0.2,2-0.6,2.9-0.6c1.2,0,1.4,0,1.2-1.2
		c-0.4-2.3,0.2-4.2,2-5.7C201.2,84.9,201.7,84.6,202.1,84.3z M63,163.4c0.7-4.8-0.3-9.4-2.4-13.8c-0.7,0.9-1.1,1.9-1.1,3.1
		C59.8,156.5,61.3,160,63,163.4C63,163.4,63.1,163.4,63,163.4z M83.9,175.2c-1.5,1.8-2.6,3.7-2,5.9c0.5,2,1.2,4,1.9,6
		c0.2,0.5,0.5,1,0.7,1.5C85,184.1,85.2,179.7,83.9,175.2z M219.3,143.7c-1.9,4.3-2,8.8-1.2,13.5
		C221.2,152.8,220.1,148.3,219.3,143.7z M162,198.8c1.9-2.5,3.4-10.1,2.6-12.7c-1.2,2.1-2.5,4.2-3.7,6.2c1.8,1,2.1,2.8,0.5,4.5
		C161.6,197.5,161.8,198.1,162,198.8z M75,183.1c-3.1-3.2-7-4-11.1-4.2C66,181.6,70.9,183.4,75,183.1z M52.1,153.3
		c-1.8-3.6-3.4-7.3-7.2-9.8C46.3,147.8,49.1,150.7,52.1,153.3z M163.3,160.1c-0.1,0-0.2,0-0.4,0c0.2,2.1,0.3,4.2,0.5,6.6
		c1.2-0.9,2.2-1.6,3.1-2.3C165.4,163,164.3,161.6,163.3,160.1z M176.5,161.7c-0.1,0-0.3-0.1-0.4-0.1c-0.4,0.8-1.3,1.7-1.1,2.3
		c0.5,1.7,1.4,3.3,2.1,4.9c0.1,0,0.2-0.1,0.3-0.1C177.1,166.4,176.8,164.1,176.5,161.7z M173.7,166.2c-0.1,0-0.2,0-0.3,0
		c-0.1,0.5-0.5,1.3-0.3,1.6c1.1,1.5,2.3,3,3.5,4.4c0,0,0.1-0.1,0.1-0.1C175.7,170.1,174.7,168.2,173.7,166.2z M111.1,164.4
		c-0.7-1.6-0.2-3.4-1.4-4.8c-0.1,1,0.1,2,0,3C109.7,163.5,110,164.1,111.1,164.4z M140.4,212.1c-0.5-0.6-0.9-1.2-1.5-2
		C139,211.2,138.9,212.2,140.4,212.1z"/>
	<path d="M150.8,53.2c-1.2,0-2.2-1.1-2.2-2.3c0-1.2,1.2-2.3,2.4-2.3c1.2,0,2.1,1.1,2.1,2.4C153,52.2,151.9,53.2,150.8,53.2z"/>
	<path d="M131.1,81c-1.2,0-2-0.9-2-2.1c0-1.2,1.1-2.3,2.3-2.3c1.1,0,2,1,2,2.1C133.4,80,132.3,81,131.1,81z"/>
	<path d="M113.4,117.2c0,1.2-1,2.3-2.2,2.3c-1.1,0-2.1-1-2.1-2.1c0-1.2,1.2-2.3,2.3-2.3C112.6,115.1,113.5,116,113.4,117.2z"/>
	<path d="M232.5,128.8c-1.2,0-2.1-0.8-2.1-2c0-1.2,1-2.1,2.3-2.2c1.1,0,2.1,0.9,2.1,2C234.7,127.8,233.7,128.8,232.5,128.8z"/>
	<path d="M68.5,120.1c0,1.1-1,2.1-2.2,2.1c-1.2,0-2.1-0.9-2.2-2c0-1.1,0.9-2,2.1-2.1C67.5,118.1,68.5,119,68.5,120.1z"/>
	<path d="M187.5,50.1c0,1.1-0.9,2-2.1,2.1c-1.2,0-2.2-0.9-2.2-2c0-1.1,0.9-2,2.1-2C186.6,48.2,187.5,49,187.5,50.1z"/>
	<path d="M47.9,93.4c1.1,0,1.9,0.8,1.9,1.9c0,1.2-1,2.3-2.1,2.3c-1.1,0-2-0.9-2-2C45.7,94.5,46.7,93.4,47.9,93.4z"/>
	<path d="M109.4,64.6c0,1.1-1,2.2-2.1,2.2c-1.1,0-2-0.8-2-1.9c0-1.2,0.9-2.1,2.2-2.1C108.5,62.8,109.3,63.5,109.4,64.6z"/>
	<path d="M169.4,111.2c1.1,0,2,0.9,1.9,2c0,1.1-1,2-2,1.9c-1.1,0-1.9-0.9-1.9-2C167.4,112,168.2,111.2,169.4,111.2z"/>
	<path d="M212.9,70.5c0-1.1,0.9-2,1.9-2c1.1,0,2,0.9,2,2c0,1.1-0.9,2-2,2C213.8,72.4,212.9,71.6,212.9,70.5z"/>
	<path d="M128.2,137.4c0.9,0,1.8,1,1.8,1.8c0,0.8-0.7,1.4-1.6,1.4c-1,0-1.8-0.7-1.8-1.6C126.7,138.1,127.4,137.3,128.2,137.4z"/>
	<path d="M77.5,61.8c0,0.8-0.7,1.4-1.4,1.4c-0.9,0-1.9-0.9-1.9-1.7c0-0.8,0.7-1.4,1.5-1.4C76.7,60.1,77.6,60.9,77.5,61.8z"/>
	<path d="M217,54.9c0,0.9-0.9,1.6-1.8,1.6c-0.8,0-1.4-0.6-1.4-1.4c0-0.9,0.8-1.7,1.7-1.7C216.3,53.4,217,54.2,217,54.9z"/>
	<path d="M143.1,97.7c0.9,0,1.7,0.8,1.7,1.6c0,0.8-0.8,1.6-1.6,1.6c-0.8,0-1.6-0.9-1.6-1.7C141.6,98.5,142.4,97.7,143.1,97.7z"/>
	<path d="M112.6,83.6c0.9,0,1.5,0.7,1.4,1.5c0,0.9-0.7,1.6-1.5,1.6c-0.8,0-1.5-0.8-1.5-1.6C111,84.3,111.7,83.6,112.6,83.6z"/>
	<path d="M247,108.9c0,0.8-0.7,1.4-1.5,1.4c-0.9,0-1.7-0.8-1.7-1.6c0-0.8,0.8-1.5,1.6-1.5C246.3,107.2,247,108,247,108.9z"/>
	<path d="M55,186.6c0.8,0,1.6,0.8,1.6,1.6c0,0.8-0.9,1.6-1.6,1.6c-0.8,0-1.5-0.8-1.6-1.5C53.4,187.3,54.1,186.6,55,186.6z"/>
	<path d="M231.6,181.4c0,0.9-0.8,1.6-1.8,1.6c-0.8,0-1.3-0.5-1.4-1.3c0-0.8,0.8-1.7,1.7-1.7C230.9,180,231.6,180.6,231.6,181.4z"/>
	<path d="M129.8,40.5c0,0.8-0.6,1.5-1.4,1.5c-0.9,0-1.6-0.7-1.7-1.5c0-0.8,0.7-1.5,1.5-1.5C129.1,39,129.8,39.7,129.8,40.5z"/>
	<path d="M44.3,162.4c0,0.8-0.7,1.4-1.6,1.4c-0.8,0-1.5-0.6-1.5-1.4c0-0.8,0.7-1.4,1.6-1.4C43.7,161,44.4,161.6,44.3,162.4z"/>
	<path d="M242.4,86.6c-0.8,0-1.6-0.8-1.5-1.6c0-0.8,0.6-1.3,1.3-1.3c0.8-0.1,1.6,0.7,1.6,1.6C243.8,86,243.2,86.6,242.4,86.6z"/>
	<path d="M142.4,66.3c0,0.8-0.7,1.4-1.5,1.4c-0.8,0-1.4-0.6-1.5-1.3c0-0.8,0.6-1.4,1.4-1.5C141.8,65,142.4,65.6,142.4,66.3z"/>
	<path d="M217.7,130.5c0,0.8-0.7,1.4-1.4,1.4c-0.8,0-1.4-0.7-1.3-1.4c0-0.7,0.6-1.3,1.4-1.3C217.1,129.1,217.7,129.7,217.7,130.5z"
		/>
	<path d="M200.9,67.6c0,0.8-0.6,1.4-1.4,1.4c-0.7,0-1.3-0.6-1.4-1.3c0-0.8,0.6-1.4,1.3-1.4C200.3,66.2,200.9,66.8,200.9,67.6z"/>
</g>
</svg>
